<?xml version="1.0" encoding="iso-8859-1"?>
<!-- Generator: Adobe Illustrator 19.0.0, SVG Export Plug-In . SVG Version: 6.00 Build 0)  -->
<svg version="1.1" id="Layer_1" xmlns="http://www.w3.org/2000/svg" xmlns:xlink="http://www.w3.org/1999/xlink" x="0px" y="0px"
	 viewBox="0 0 512 512" style="enable-background:new 0 0 512 512;" xml:space="preserve">
<g>
	<g>
		<path style="fill:#D1D5D5;" d="M34.577,449.248c1.153,1.443,0.701,3.725-1.016,5.093l-6.724,5.367
			c-1.714,1.367-4.039,1.308-5.191-0.137L5.128,438.877c-1.153-1.444-0.698-3.724,1.016-5.094l6.724-5.365
			c1.715-1.368,4.037-1.308,5.191,0.136L34.577,449.248z"/>
		<path style="fill:#C6CBCB;" d="M21.971,428.378c1.191,1.503,0.939,3.686-0.563,4.878l-12.433,9.857
			c-1.505,1.193-3.686,0.939-4.879-0.562l-3.345-4.221c-1.19-1.503-0.938-3.684,0.564-4.878l12.433-9.857
			c1.502-1.19,3.686-0.94,4.878,0.564L21.971,428.378z"/>
	</g>
	<g>
		<path style="fill:#D1D5D5;" d="M477.425,449.248c-1.154,1.443-0.701,3.725,1.015,5.093l6.725,5.367
			c1.713,1.367,4.039,1.308,5.191-0.137l16.518-20.694c1.153-1.444,0.698-3.724-1.016-5.094l-6.724-5.365
			c-1.715-1.368-4.038-1.308-5.191,0.136L477.425,449.248z"/>
		<path style="fill:#C6CBCB;" d="M490.029,428.378c-1.19,1.503-0.938,3.686,0.564,4.878l12.433,9.857
			c1.504,1.193,3.686,0.939,4.878-0.562l3.345-4.221c1.191-1.503,0.939-3.684-0.563-4.878l-12.433-9.857
			c-1.502-1.19-3.686-0.94-4.879,0.564L490.029,428.378z"/>
	</g>
	<polygon style="fill:#F2B643;" points="256.001,70.116 380.136,271.789 504.27,473.464 256.001,473.464 7.729,473.464 
		131.864,271.789 	"/>
	<polygon style="fill:#D89932;" points="235.589,388.08 246.059,376.741 246.059,473.464 256.001,473.464 256.001,330.986 	"/>
	<path style="fill:#D1D5D5;" d="M265.505,92.45c1.227,2.883-0.116,6.215-2.999,7.442l-0.869,0.369
		c-2.884,1.228-6.215-0.116-7.442-2.998l-21.472-50.462c-1.227-2.882,0.115-6.215,2.999-7.441l0.869-0.37
		c2.884-1.227,6.217,0.116,7.442,2.999L265.505,92.45z"/>
	<path style="fill:#C6CBCB;" d="M232.722,46.802l21.472,50.462c1.214,2.852,4.486,4.187,7.348,3.027l-26.383-60.622
		C232.682,41.072,231.582,44.12,232.722,46.802z"/>
	<path style="fill:#D1D5D5;" d="M278.926,47.781c1.227-2.883-0.116-6.215-2.999-7.442l-0.869-0.369
		c-2.884-1.228-6.215,0.116-7.442,2.998L246.144,93.43c-1.227,2.882,0.115,6.215,2.999,7.441l0.869,0.37
		c2.884,1.228,6.216-0.116,7.442-2.999L278.926,47.781z"/>
	<path style="fill:#C6CBCB;" d="M267.615,42.968L246.143,93.43c-1.227,2.882,0.115,6.215,2.999,7.441l0.417,0.178l25.384-61.115
		C272.087,38.788,268.826,40.123,267.615,42.968z"/>
	<polygon style="fill:#48B19B;" points="256.001,70.116 256.001,473.464 504.27,473.464 	"/>
	<path style="fill:#48B19B;" d="M256.001,70.116L7.73,473.464h192.826c0,0,78.479-177.696,78.824-239.153
		C279.726,172.854,256.001,70.116,256.001,70.116z"/>
	<path style="opacity:0.5;fill:#F2B643;enable-background:new    ;" d="M271.767,280.019
		c-19.77,76.966-71.212,193.445-71.212,193.445l-30.256-31.157L271.767,280.019z"/>
	<polygon style="fill:#49A893;" points="422.753,473.464 333.875,280.019 378.314,473.464 	"/>
	<polygon style="fill:#49A893;" points="73.863,473.464 105.064,473.464 191.106,245.656 	"/>
	<path style="fill:#49A893;" d="M256.001,359.561c0,0,38.634-60.01,29.415-137.069c-5.234-43.746-29.415-152.375-29.415-152.375
		s23.726,102.737,23.379,164.194c-0.123,21.898-10.167,58.558-23.045,96.676L256.001,359.561z"/>
	<polygon style="fill:#49A893;" points="7.729,473.464 22.722,473.464 256.001,70.116 	"/>
	<polygon style="fill:#49A893;" points="504.271,473.464 489.279,473.464 256.001,70.116 	"/>
	<path style="fill:#D1D5D5;" d="M273.348,80.153c0,2.047-1.905,3.703-4.255,3.703h-26.187c-2.35,0-4.255-1.656-4.255-3.703v-6.334
		c0-2.044,1.905-3.703,4.255-3.703h26.187c2.35,0,4.255,1.659,4.255,3.703V80.153z"/>
</g>
<g>
</g>
<g>
</g>
<g>
</g>
<g>
</g>
<g>
</g>
<g>
</g>
<g>
</g>
<g>
</g>
<g>
</g>
<g>
</g>
<g>
</g>
<g>
</g>
<g>
</g>
<g>
</g>
<g>
</g>
</svg>
