<?xml version="1.0" encoding="iso-8859-1"?>
<!-- Generator: Adobe Illustrator 19.0.0, SVG Export Plug-In . SVG Version: 6.00 Build 0)  -->
<svg version="1.1" id="Layer_1" xmlns="http://www.w3.org/2000/svg" xmlns:xlink="http://www.w3.org/1999/xlink" x="0px" y="0px"
	 viewBox="0 0 460 460" style="enable-background:new 0 0 460 460;" xml:space="preserve">
<g id="XMLID_501_">
	<path id="XMLID_1410_" style="fill:#BC3C28;" d="M460,445c0,8.284-6.716,15-15,15h-25H40H15c-8.284,0-15-6.716-15-15
		s6.716-15,15-15h2.609L210,102.222l-44.751-76.243C158.5,14.481,166.791,0,180.124,0l0,0c6.118,0,11.778,3.241,14.875,8.517
		L230,68.148l35.001-59.631C268.098,3.241,273.758,0,279.876,0l0,0c13.333,0,21.624,14.481,14.875,25.979L250,102.222L442.391,430
		H445C453.284,430,460,436.716,460,445z"/>
	<path id="XMLID_1409_" style="fill:#D4632E;" d="M230,460H40H15c-8.284,0-15-6.716-15-15s6.716-15,15-15h2.609L210,102.222
		l-44.751-76.243C158.5,14.481,166.791,0,180.124,0l0,0c6.118,0,11.778,3.241,14.875,8.517L230,68.148V460z"/>
	<path id="XMLID_1408_" style="fill:#544236;" d="M297.93,369.474L310,460H150l12.07-90.526C166.61,335.427,195.652,310,230,310l0,0
		C264.348,310,293.39,335.427,297.93,369.474z"/>
	<path id="XMLID_1262_" style="fill:#5F4B3D;" d="M230,460h-80l12.07-90.526C166.61,335.427,195.652,310,230,310l0,0V460z"/>
</g>
<g>
</g>
<g>
</g>
<g>
</g>
<g>
</g>
<g>
</g>
<g>
</g>
<g>
</g>
<g>
</g>
<g>
</g>
<g>
</g>
<g>
</g>
<g>
</g>
<g>
</g>
<g>
</g>
<g>
</g>
</svg>
