<?xml version="1.0" encoding="iso-8859-1"?>
<!-- Generator: Adobe Illustrator 19.0.0, SVG Export Plug-In . SVG Version: 6.00 Build 0)  -->
<svg version="1.1" id="Layer_1" xmlns="http://www.w3.org/2000/svg" xmlns:xlink="http://www.w3.org/1999/xlink" x="0px" y="0px"
	 viewBox="0 0 474.085 474.085" style="enable-background:new 0 0 474.085 474.085;" xml:space="preserve">
<circle style="fill:#344E5D;" cx="237.042" cy="236.966" r="236.966"/>
<path style="fill:#4D8353;" d="M237.016,474.085c100.781,0,186.811-62.944,221.074-151.635c-61.87-37.298-142.322-55-230.283-55
	c-80.886,0-155.414,14.982-214.994,46.39C44.708,407.044,133.006,474.085,237.016,474.085z"/>
<path style="fill:#91722F;" d="M239.736,343.363L239.426,86.42c0.067-1.19-0.853-2.211-2.047-2.268
	c-1.194-0.071-2.215,0.853-2.271,2.05l0.311,256.939c-0.067,1.186,0.853,2.211,2.043,2.275
	C238.659,345.473,239.677,344.556,239.736,343.363z"/>
<path style="fill:#DCD478;" d="M362.911,304.302c0,69.215-250.668,69.215-250.668,0c0-15.873,125.334-191.514,125.334-191.514
	S362.911,295.012,362.911,304.302z"/>
<path style="fill:#91722F;" d="M240.597,250.417c-18.645,0-33.754,36.235-33.754,80.927c0,8.202,0.513,16.127,1.456,23.596
	c21.249,1.886,43.678,1.68,64.676-0.61c0.891-7.281,1.381-15.001,1.381-22.986C274.351,286.649,259.238,250.417,240.597,250.417z"/>
<path style="fill:#795B25;" d="M240.597,263.401c-16.359,0-29.616,31.783-29.616,70.992c0,7.199,0.449,14.144,1.283,20.696
	c18.638,1.658,38.316,1.482,56.733-0.535c0.789-6.395,1.212-13.156,1.212-20.164C270.209,295.184,256.952,263.401,240.597,263.401z"
	/>
<g>
	<path style="fill:#91722F;" d="M370.328,309.765L228.268,95.673c-0.61-1.033-1.931-1.373-2.963-0.767
		c-1.029,0.606-1.373,1.931-0.767,2.96l142.063,214.1c0.606,1.029,1.931,1.377,2.963,0.771
		C370.59,312.126,370.934,310.794,370.328,309.765z"/>
	<path style="fill:#91722F;" d="M103.63,309.765L246.962,95.011c0.61-1.025,1.942-1.369,2.967-0.763
		c1.029,0.606,1.369,1.938,0.763,2.967L107.357,311.966c-0.602,1.029-1.931,1.377-2.963,0.771
		C103.368,312.126,103.02,310.794,103.63,309.765z"/>
</g>
<g>
	<polygon style="fill:#D7DABA;" points="363.039,112.369 366.837,124.051 379.113,124.051 369.179,131.268 372.977,142.946 
		363.039,135.725 353.104,142.946 356.902,131.268 346.964,124.051 359.245,124.051 	"/>
	<polygon style="fill:#D7DABA;" points="304.031,70.97 306.662,79.063 315.167,79.063 308.282,84.062 310.916,92.152 
		304.031,87.153 297.146,92.152 299.777,84.062 292.892,79.063 301.401,79.063 	"/>
	<polygon style="fill:#D7DABA;" points="364.431,192.282 367.061,200.379 375.57,200.379 368.685,205.378 371.315,213.467 
		364.431,208.468 357.546,213.467 360.18,205.378 353.295,200.379 361.8,200.379 	"/>
</g>
<g>
</g>
<g>
</g>
<g>
</g>
<g>
</g>
<g>
</g>
<g>
</g>
<g>
</g>
<g>
</g>
<g>
</g>
<g>
</g>
<g>
</g>
<g>
</g>
<g>
</g>
<g>
</g>
<g>
</g>
</svg>
