<?xml version="1.0" encoding="iso-8859-1"?>
<!-- Generator: Adobe Illustrator 19.0.0, SVG Export Plug-In . SVG Version: 6.00 Build 0)  -->
<svg version="1.1" id="Layer_1" xmlns="http://www.w3.org/2000/svg" xmlns:xlink="http://www.w3.org/1999/xlink" x="0px" y="0px"
	 viewBox="0 0 512 512" style="enable-background:new 0 0 512 512;" xml:space="preserve">
<g>
	<polygon style="fill:#9AA880;" points="260.339,121.491 180.658,288.446 208.271,321.084 165.081,321.084 162.209,327.089 
		225.627,390.508 138.847,390.508 138.847,503.322 442.576,503.322 	"/>
	<polygon style="fill:#69914B;" points="112.814,104.135 52.068,182.237 112.814,182.237 173.559,182.237 	"/>
	<polygon style="fill:#366030;" points="134.114,182.237 112.809,182.237 91.513,182.237 34.708,251.661 112.809,251.661 
		190.911,251.661 	"/>
	<polygon style="fill:#69914B;" points="149.528,251.661 112.812,251.661 76.095,251.661 17.354,321.084 112.812,321.084 
		208.269,321.084 	"/>
	<polygon style="fill:#AA623A;" points="86.78,503.322 138.847,503.322 138.847,390.509 86.78,390.509 	"/>
	<path style="fill:#4A503B;" d="M200.615,503.085l60.433-207.343c0.121-0.269,0.503-0.269,0.625,0l60.433,207.577L200.615,503.085z"
		/>
	<path style="fill:#6C7556;" d="M327.946,349.529l-66.586-54.48l60.746,208.271l25.097-94.121
		C353.06,387.252,345.527,363.908,327.946,349.529"/>
	<polygon style="fill:#366030;" points="156.203,321.084 112.814,321.084 69.424,321.084 0,390.508 112.814,390.508 
		225.627,390.508 	"/>
	<polygon style="fill:#69914B;" points="373.153,69.423 312.407,147.525 373.153,147.525 433.898,147.525 	"/>
	<polygon style="fill:#366030;" points="305.898,216.949 373.153,216.949 451.254,216.949 394.457,147.525 373.153,147.525 
		351.848,147.525 301.898,208.574 	"/>
	<polygon style="fill:#69914B;" points="339.033,286.372 373.154,286.372 468.612,286.372 409.871,216.949 373.154,216.949 
		336.438,216.949 316.912,240.023 	"/>
	<polygon style="fill:#366030;" points="372.167,355.796 373.156,355.796 485.97,355.796 416.546,286.372 373.156,286.372 
		339.034,286.372 	"/>
	<polygon style="fill:#AA623A;" points="416.542,448.775 416.542,355.8 372.163,355.8 	"/>
	<g>
		<path style="fill:#4F6082;" d="M52.068,95.457c-4.79,0-8.678-3.879-8.678-8.678c0-33.488,27.249-60.746,60.746-60.746
			c4.79,0,8.678,3.879,8.678,8.678s-3.888,8.678-8.678,8.678c-23.925,0-43.39,19.465-43.39,43.39
			C60.746,91.578,56.858,95.457,52.068,95.457"/>
		<path style="fill:#4F6082;" d="M52.068,95.457c-4.79,0-8.678-3.879-8.678-8.678c0-19.144-15.568-34.712-34.712-34.712
			C3.888,52.067,0,48.188,0,43.389s3.888-8.678,8.678-8.678c28.715,0,52.068,23.352,52.068,52.068
			C60.746,91.578,56.858,95.457,52.068,95.457"/>
	</g>
	<g>
		<path style="fill:#F0C419;" d="M329.763,17.355c0-4.79,3.888-8.678,8.678-8.678s8.678,3.888,8.678,8.678s-3.888,8.678-8.678,8.678
			S329.763,22.146,329.763,17.355"/>
		<path style="fill:#F0C419;" d="M512,52.067c0,4.79-3.888,8.678-8.678,8.678s-8.678-3.888-8.678-8.678s3.888-8.678,8.678-8.678
			S512,47.277,512,52.067"/>
	</g>
	<g>
		<path style="fill:#6C7556;" d="M200.615,503.085l32.447-111.338l-7.437-1.241H173.8c-0.408,6.196,0.061,12.488,1.718,18.692
			l25.097,94.121l0.304-0.234H200.615z"/>
		<path style="fill:#6C7556;" d="M260.339,130.169c-4.79,0-8.678-3.879-8.678-8.678V43.389c0-4.799,3.888-8.678,8.678-8.678
			c4.79,0,8.678,3.879,8.678,8.678v78.102C269.017,126.29,265.129,130.169,260.339,130.169"/>
		<path style="fill:#6C7556;" d="M260.339,138.847c-2.222,0-4.443-0.85-6.135-2.543c-3.393-3.393-3.393-8.878,0-12.271l43.39-43.39
			c3.393-3.393,8.878-3.393,12.271,0c3.393,3.393,3.393,8.878,0,12.271l-43.39,43.39
			C264.782,137.997,262.561,138.847,260.339,138.847"/>
		<path style="fill:#6C7556;" d="M260.339,138.847c-2.222,0-4.443-0.85-6.135-2.543l-43.39-43.39c-3.393-3.393-3.393-8.878,0-12.271
			c3.393-3.393,8.878-3.393,12.271,0l43.39,43.39c3.393,3.393,3.393,8.878,0,12.271
			C264.782,137.997,262.561,138.847,260.339,138.847"/>
	</g>
</g>
<g>
</g>
<g>
</g>
<g>
</g>
<g>
</g>
<g>
</g>
<g>
</g>
<g>
</g>
<g>
</g>
<g>
</g>
<g>
</g>
<g>
</g>
<g>
</g>
<g>
</g>
<g>
</g>
<g>
</g>
</svg>
