<?xml version="1.0" encoding="iso-8859-1"?>
<!-- Generator: Adobe Illustrator 18.0.0, SVG Export Plug-In . SVG Version: 6.00 Build 0)  -->
<!DOCTYPE svg PUBLIC "-//W3C//DTD SVG 1.1//EN" "http://www.w3.org/Graphics/SVG/1.1/DTD/svg11.dtd">
<svg version="1.1" id="Capa_1" xmlns="http://www.w3.org/2000/svg" xmlns:xlink="http://www.w3.org/1999/xlink" x="0px" y="0px"
	 viewBox="0 0 442.616 442.616" style="enable-background:new 0 0 442.616 442.616;" xml:space="preserve">
<g id="XMLID_1_">
	<g>
		<polygon style="fill:#2E7249;" points="228.811,276.817 274.771,398.747 228.811,398.747 		"/>
		<path style="fill:#6DCC93;" d="M213.811,64.357v334.39h-27.7v-32.83c0-4.14-3.36-7.5-7.5-7.5s-7.5,3.36-7.5,7.5v32.83h-13v-12.83
			c0-4.14-3.36-7.5-7.5-7.5s-7.5,3.36-7.5,7.5v12.83h-27v-52.83c0-4.14-3.36-7.5-7.5-7.5s-7.5,3.36-7.5,7.5v52.83h-9v-12.83
			c0-4.14-3.36-7.5-7.5-7.5s-7.5,3.36-7.5,7.5v12.83h-22.57v-58.54L213.811,64.357z"/>
		<path style="fill:#6DCC93;" d="M388.081,340.217v58.53h-27.97v-12.83c0-4.14-3.36-7.5-7.5-7.5c-4.14,0-7.5,3.36-7.5,7.5v12.83h-27
			v-32.83c0-4.14-3.36-7.5-7.5-7.5c-4.14,0-7.5,3.36-7.5,7.5v32.83h-12.31l-61.99-164.46V64.357L388.081,340.217z"/>
		<path style="fill:#4D4D4D;" d="M441.361,402.507c2.07,3.58,0.84,8.17-2.75,10.24c-1.18,0.68-2.47,1.01-3.74,1.01
			c-2.59,0-5.11-1.35-6.5-3.75l-25.29-43.8v40.04c0,4.14-3.36,7.5-7.5,7.5H47.041c-4.14,0-7.5-3.36-7.5-7.5v-40.06l-25.29,43.82
			c-2.08,3.58-6.66,4.81-10.25,2.74c-3.59-2.07-4.82-6.66-2.75-10.24l213.56-369.89c1.34-2.33,3.82-3.75,6.5-3.75
			c2.68,0,5.15,1.42,6.49,3.75L441.361,402.507z M388.081,398.747v-58.53l-159.27-275.86v169.93l61.99,164.46h12.31v-32.83
			c0-4.14,3.36-7.5,7.5-7.5c4.14,0,7.5,3.36,7.5,7.5v32.83h27v-12.83c0-4.14,3.36-7.5,7.5-7.5c4.14,0,7.5,3.36,7.5,7.5v12.83
			H388.081z M274.771,398.747l-45.96-121.93v121.93H274.771z M213.811,398.747V64.357l-159.27,275.85v58.54h22.57v-12.83
			c0-4.14,3.36-7.5,7.5-7.5s7.5,3.36,7.5,7.5v12.83h9v-52.83c0-4.14,3.36-7.5,7.5-7.5s7.5,3.36,7.5,7.5v52.83h27v-12.83
			c0-4.14,3.36-7.5,7.5-7.5s7.5,3.36,7.5,7.5v12.83h13v-32.83c0-4.14,3.36-7.5,7.5-7.5s7.5,3.36,7.5,7.5v32.83H213.811z"/>
	</g>
	<g>
	</g>
</g>
<g>
</g>
<g>
</g>
<g>
</g>
<g>
</g>
<g>
</g>
<g>
</g>
<g>
</g>
<g>
</g>
<g>
</g>
<g>
</g>
<g>
</g>
<g>
</g>
<g>
</g>
<g>
</g>
<g>
</g>
</svg>
